<svg xmlns="http://www.w3.org/2000/svg" xmlns:xlink="http://www.w3.org/1999/xlink" width="208" height="20" viewBox="0 0 208 20"><defs><path id="yql8a" d="M59.59 59.24v.56h-4.27L49.8 46.55 44.3 59.8H40v-.56l8.87-19.21h1.9zm121.66 0v.56h-4.27l-5.5-13.25-5.52 13.25h-4.3v-.56l8.88-19.21h1.9zm66.75 0v.56h-4.27l-5.51-13.25-5.5 13.25h-4.3v-.56l8.86-19.21h1.9zM93.16 40c3.88 0 8.01 2.13 8.9 6.97h-4c-.85-2.21-2.59-3.2-4.9-3.2-3.42 0-5.7 2.53-5.7 6.25 0 3.37 2.23 6.17 5.67 6.17 2.4 0 4.35-1.15 5.01-3.53h3.97c-.83 5.18-4.93 7.33-8.95 7.33-5.07 0-9.87-3.47-9.87-9.97 0-6.52 4.8-10.1 9.87-10.02m25.03 19.8V51.5h-7.38v8.29h-4.1V40.2h4.1v7.47h7.38V40.2h4.13v19.6zm14.8 0h-4.14V40.2H133zm70.84 0h-4.13V40.2h4.13zM156.6 40.14h1.5V59.8h-4.14V49.19l-4.85 6.16h-.52l-4.85-6.16v10.6h-4.13V40.15h1.51l7.74 9.32zm24.17 3.7V40.2h14.27v3.64h-5.13V59.8h-4V43.84zM79.8 59.18v.6h-4.41l-3.97-6.48h-3.44v6.47h-4.13v-9.91h8.2c1.74 0 2.87-1.37 2.84-3.05 0-1.66-1.07-2.97-2.83-2.97h-8.21v-3.67c2.75 0 5.48-.03 8.23 0 4.41 0 6.8 3.25 6.8 6.72 0 2.5-1.23 4.67-3.43 5.77zm146.47-18.56l-6.05 9.28 6.05 9.28v.62h-4.66l-4.74-7.88h-3.14v7.88h-4.1V40.2h4.1v7.73h3.14l4.74-7.93h4.66z"/></defs><g><g transform="translate(-40 -40)"><use fill="#fff" xlink:href="#yql8a"/></g></g></svg>